# Blender v2.83.5 OBJ File: 'wood_pole.blend'
# www.blender.org
mtllib wood_pole.mtl
o none
v 0.062500 0.562500 0.062500
v 0.062500 0.437500 0.062500
v 0.062500 0.562500 -0.062500
v 0.062500 0.437500 -0.062500
v -0.062500 0.562500 -0.062500
v -0.062500 0.437500 -0.062500
v -0.062500 0.562500 0.062500
v -0.062500 0.437500 0.062500
vt 0.250000 0.750000
vt 0.250000 0.625000
vt 0.375000 0.750000
vt 0.375000 0.625000
vt 0.062500 0.500000
vt 0.062500 0.375000
vt 0.187500 0.500000
vt 0.187500 0.375000
vt 0.312500 0.812500
vt 0.312500 0.687500
vt 0.437500 0.812500
vt 0.437500 0.687500
vt 0.187500 0.500000
vt 0.187500 0.375000
vt 0.312500 0.500000
vt 0.312500 0.375000
vt 0.250000 0.562500
vt 0.250000 0.437500
vt 0.375000 0.562500
vt 0.375000 0.437500
vt 0.187500 0.625000
vt 0.187500 0.500000
vt 0.312500 0.625000
vt 0.312500 0.500000
vn 1.0000 0.0000 0.0000
vn -1.0000 0.0000 0.0000
vn 0.0000 1.0000 0.0000
vn 0.0000 -1.0000 0.0000
vn 0.0000 0.0000 1.0000
vn 0.0000 0.0000 -1.0000
usemtl 0
s 1
f 1/1/1 2/2/1 3/3/1
f 2/2/1 4/4/1 3/3/1
f 5/5/2 6/6/2 7/7/2
f 6/6/2 8/8/2 7/7/2
f 5/9/3 7/10/3 3/11/3
f 7/10/3 1/12/3 3/11/3
f 8/13/4 6/14/4 2/15/4
f 6/14/4 4/16/4 2/15/4
f 7/17/5 8/18/5 1/19/5
f 8/18/5 2/20/5 1/19/5
f 3/21/6 4/22/6 5/23/6
f 4/22/6 6/24/6 5/23/6
o down
v 0.062500 0.437500 0.062500
v 0.062500 -0.000000 0.062500
v 0.062500 0.437500 -0.062500
v 0.062500 0.000000 -0.062500
v -0.062500 0.437500 -0.062500
v -0.062500 0.000000 -0.062500
v -0.062500 0.437500 0.062500
v -0.062500 -0.000000 0.062500
vt 0.250000 0.687500
vt 0.250000 0.250000
vt 0.375000 0.687500
vt 0.375000 0.250000
vt 0.000000 1.000000
vt 0.000000 0.562500
vt 0.125000 1.000000
vt 0.125000 0.562500
vt 0.312500 0.437500
vt 0.312500 0.312500
vt 0.437500 0.437500
vt 0.437500 0.312500
vt 0.187500 0.250000
vt 0.187500 0.125000
vt 0.312500 0.250000
vt 0.312500 0.125000
vt 0.187500 0.687500
vt 0.312500 0.687500
vt 0.125000 0.687500
vt 0.125000 0.250000
vt 0.250000 0.687500
vt 0.250000 0.250000
vn 1.0000 0.0000 0.0000
vn -1.0000 0.0000 0.0000
vn 0.0000 1.0000 0.0000
vn 0.0000 -1.0000 -0.0000
vn 0.0000 -0.0000 1.0000
vn 0.0000 0.0000 -1.0000
usemtl 1_0
s 1
f 9/25/7 10/26/7 11/27/7
f 10/26/7 12/28/7 11/27/7
f 13/29/8 14/30/8 15/31/8
f 14/30/8 16/32/8 15/31/8
f 13/33/9 15/34/9 11/35/9
f 15/34/9 9/36/9 11/35/9
f 16/37/10 14/38/10 10/39/10
f 14/38/10 12/40/10 10/39/10
f 15/41/11 16/37/11 9/42/11
f 16/37/11 10/39/11 9/42/11
f 11/43/12 12/44/12 13/45/12
f 12/44/12 14/46/12 13/45/12
o east
v 0.500000 0.562500 0.062500
v 0.500000 0.437500 0.062500
v 0.500000 0.562500 -0.062500
v 0.500000 0.437500 -0.062500
v 0.062500 0.562500 -0.062500
v 0.062500 0.437500 -0.062500
v 0.062500 0.562500 0.062500
v 0.062500 0.437500 0.062500
vt 0.187500 0.250000
vt 0.187500 0.125000
vt 0.312500 0.250000
vt 0.312500 0.125000
vt 0.437500 0.312500
vt 0.437500 0.437500
vt 0.312500 0.312500
vt 0.312500 0.437500
vt 0.312500 0.687500
vt 0.187500 0.687500
vt 0.250000 0.687500
vt 0.125000 0.687500
vt 0.250000 0.250000
vt 0.125000 0.250000
vt 0.125000 1.000000
vt 0.000000 1.000000
vt 0.125000 0.562500
vt 0.000000 0.562500
vt 0.250000 0.250000
vt 0.375000 0.250000
vt 0.250000 0.687500
vt 0.375000 0.687500
vn 1.0000 0.0000 0.0000
vn -1.0000 0.0000 0.0000
vn 0.0000 1.0000 0.0000
vn 0.0000 -1.0000 0.0000
vn 0.0000 0.0000 1.0000
vn 0.0000 0.0000 -1.0000
usemtl 1_0
s 1
f 17/47/13 18/48/13 19/49/13
f 18/48/13 20/50/13 19/49/13
f 21/51/14 22/52/14 23/53/14
f 22/52/14 24/54/14 23/53/14
f 21/55/15 23/56/15 19/49/15
f 23/56/15 17/47/15 19/49/15
f 24/57/16 22/58/16 18/59/16
f 22/58/16 20/60/16 18/59/16
f 23/61/17 24/62/17 17/63/17
f 24/62/17 18/64/17 17/63/17
f 19/65/18 20/66/18 21/67/18
f 20/66/18 22/68/18 21/67/18
o south
v 0.062500 0.562500 0.500000
v 0.062500 0.437500 0.500000
v 0.062500 0.562500 0.062500
v 0.062500 0.437500 0.062500
v -0.062500 0.562500 0.062500
v -0.062500 0.437500 0.062500
v -0.062500 0.562500 0.500000
v -0.062500 0.437500 0.500000
vt 0.250000 0.250000
vt 0.375000 0.250000
vt 0.250000 0.687500
vt 0.375000 0.687500
vt 0.125000 1.000000
vt 0.000000 1.000000
vt 0.125000 0.562500
vt 0.000000 0.562500
vt 0.187500 0.687500
vt 0.187500 0.250000
vt 0.312500 0.687500
vt 0.312500 0.250000
vt 0.250000 0.250000
vt 0.250000 0.687500
vt 0.125000 0.250000
vt 0.125000 0.687500
vt 0.187500 0.125000
vt 0.312500 0.125000
vt 0.437500 0.312500
vt 0.437500 0.437500
vt 0.312500 0.312500
vt 0.312500 0.437500
vn 1.0000 0.0000 0.0000
vn -1.0000 0.0000 0.0000
vn 0.0000 1.0000 0.0000
vn 0.0000 -1.0000 -0.0000
vn 0.0000 0.0000 1.0000
vn 0.0000 0.0000 -1.0000
usemtl 1_0
s 1
f 25/69/19 26/70/19 27/71/19
f 26/70/19 28/72/19 27/71/19
f 29/73/20 30/74/20 31/75/20
f 30/74/20 32/76/20 31/75/20
f 29/77/21 31/78/21 27/79/21
f 31/78/21 25/80/21 27/79/21
f 32/81/22 30/82/22 26/83/22
f 30/82/22 28/84/22 26/83/22
f 31/78/23 32/85/23 25/80/23
f 32/85/23 26/86/23 25/80/23
f 27/87/24 28/88/24 29/89/24
f 28/88/24 30/90/24 29/89/24
o up
v 0.062500 1.000000 0.062500
v 0.062500 0.562500 0.062500
v 0.062500 1.000000 -0.062500
v 0.062500 0.562500 -0.062500
v -0.062500 1.000000 -0.062500
v -0.062500 0.562500 -0.062500
v -0.062500 1.000000 0.062500
v -0.062500 0.562500 0.062500
vt 0.375000 0.250000
vt 0.375000 0.687500
vt 0.250000 0.250000
vt 0.250000 0.687500
vt 0.125000 0.562500
vt 0.125000 1.000000
vt 0.000000 0.562500
vt 0.000000 1.000000
vt 0.187500 0.250000
vt 0.187500 0.125000
vt 0.312500 0.250000
vt 0.312500 0.125000
vt 0.312500 0.437500
vt 0.312500 0.312500
vt 0.437500 0.437500
vt 0.437500 0.312500
vt 0.250000 0.250000
vt 0.250000 0.687500
vt 0.125000 0.250000
vt 0.125000 0.687500
vt 0.312500 0.687500
vt 0.187500 0.687500
vn 1.0000 0.0000 0.0000
vn -1.0000 0.0000 0.0000
vn 0.0000 1.0000 0.0000
vn 0.0000 -1.0000 0.0000
vn 0.0000 -0.0000 1.0000
vn 0.0000 0.0000 -1.0000
usemtl 1_0
s 1
f 33/91/25 34/92/25 35/93/25
f 34/92/25 36/94/25 35/93/25
f 37/95/26 38/96/26 39/97/26
f 38/96/26 40/98/26 39/97/26
f 37/99/27 39/100/27 35/101/27
f 39/100/27 33/102/27 35/101/27
f 40/103/28 38/104/28 34/105/28
f 38/104/28 36/106/28 34/105/28
f 39/107/29 40/108/29 33/109/29
f 40/108/29 34/110/29 33/109/29
f 35/101/30 36/111/30 37/99/30
f 36/111/30 38/112/30 37/99/30
o north
v 0.062500 0.562500 -0.062500
v 0.062500 0.437500 -0.062500
v 0.062500 0.562500 -0.500000
v 0.062500 0.437500 -0.500000
v -0.062500 0.562500 -0.500000
v -0.062500 0.437500 -0.500000
v -0.062500 0.562500 -0.062500
v -0.062500 0.437500 -0.062500
vt 0.375000 0.687500
vt 0.250000 0.687500
vt 0.375000 0.250000
vt 0.250000 0.250000
vt 0.000000 0.562500
vt 0.125000 0.562500
vt 0.000000 1.000000
vt 0.125000 1.000000
vt 0.250000 0.250000
vt 0.250000 0.687500
vt 0.125000 0.250000
vt 0.125000 0.687500
vt 0.187500 0.687500
vt 0.187500 0.250000
vt 0.312500 0.687500
vt 0.312500 0.250000
vt 0.312500 0.437500
vt 0.312500 0.312500
vt 0.437500 0.437500
vt 0.437500 0.312500
vt 0.312500 0.125000
vt 0.187500 0.125000
vn 1.0000 0.0000 0.0000
vn -1.0000 0.0000 0.0000
vn 0.0000 1.0000 0.0000
vn 0.0000 -1.0000 0.0000
vn 0.0000 -0.0000 1.0000
vn 0.0000 0.0000 -1.0000
usemtl 1_0
s 1
f 41/113/31 42/114/31 43/115/31
f 42/114/31 44/116/31 43/115/31
f 45/117/32 46/118/32 47/119/32
f 46/118/32 48/120/32 47/119/32
f 45/121/33 47/122/33 43/123/33
f 47/122/33 41/124/33 43/123/33
f 48/125/34 46/126/34 42/127/34
f 46/126/34 44/128/34 42/127/34
f 47/129/35 48/130/35 41/131/35
f 48/130/35 42/132/35 41/131/35
f 43/133/36 44/128/36 45/134/36
f 44/128/36 46/126/36 45/134/36
o west
v -0.062500 0.562500 0.062500
v -0.062500 0.437500 0.062500
v -0.062500 0.562500 -0.062500
v -0.062500 0.437500 -0.062500
v -0.500000 0.562500 -0.062500
v -0.500000 0.437500 -0.062500
v -0.500000 0.562500 0.062500
v -0.500000 0.437500 0.062500
vt 0.437500 0.312500
vt 0.437500 0.437500
vt 0.312500 0.312500
vt 0.312500 0.437500
vt 0.187500 0.250000
vt 0.187500 0.125000
vt 0.312500 0.250000
vt 0.312500 0.125000
vt 0.187500 0.687500
vt 0.312500 0.687500
vt 0.125000 0.250000
vt 0.250000 0.250000
vt 0.125000 0.687500
vt 0.250000 0.687500
vt 0.250000 0.250000
vt 0.375000 0.250000
vt 0.250000 0.687500
vt 0.375000 0.687500
vt 0.125000 1.000000
vt 0.000000 1.000000
vt 0.125000 0.562500
vt 0.000000 0.562500
vn 1.0000 0.0000 0.0000
vn -1.0000 0.0000 0.0000
vn 0.0000 1.0000 0.0000
vn 0.0000 -1.0000 0.0000
vn 0.0000 0.0000 1.0000
vn 0.0000 0.0000 -1.0000
usemtl 1_0
s 1
f 49/135/37 50/136/37 51/137/37
f 50/136/37 52/138/37 51/137/37
f 53/139/38 54/140/38 55/141/38
f 54/140/38 56/142/38 55/141/38
f 53/139/39 55/141/39 51/143/39
f 55/141/39 49/144/39 51/143/39
f 56/145/40 54/146/40 50/147/40
f 54/146/40 52/148/40 50/147/40
f 55/149/41 56/150/41 49/151/41
f 56/150/41 50/152/41 49/151/41
f 51/153/42 52/154/42 53/155/42
f 52/154/42 54/156/42 53/155/42
